<svg width="46" height="52" viewBox="0 0 46 52" fill="none" xmlns="http://www.w3.org/2000/svg">
<path d="M44.1672 0.531351C43.8359 0.601142 43.4218 0.838433 39.9569 2.91124C30.7631 8.41778 30.7562 8.42476 30.3904 9.14361C30.2109 9.49954 29.7278 10.7767 29.4724 11.5514C29.3689 11.8655 29.2239 12.1795 29.148 12.2493C29.01 12.3749 28.6372 12.3819 18.9811 12.4168L8.96598 12.4517L8.60706 12.6402C8.05489 12.9333 7.7719 13.4707 7.85472 14.043C7.96516 14.7758 7.31635 13.7917 19.5954 31.8886C21.6384 34.9036 23.364 37.4929 23.433 37.6464C23.5503 37.9046 23.5641 38.2257 23.5641 42.3992C23.5641 46.5727 23.5572 46.8798 23.4468 46.9775C23.364 47.0543 22.8739 47.145 21.9076 47.2706C18.9949 47.6475 17.504 47.8778 16.8345 48.0523C15.599 48.3664 14.5775 49.0015 14.0391 49.7901C13.7906 50.153 13.5559 50.8509 13.5559 51.2208V51.5H26.0903H38.6178L38.5764 51.165C38.4384 50.1181 38.0035 49.3365 37.2995 48.8619C36.7473 48.485 36.278 48.3175 35.1598 48.0802C34.1659 47.8639 30.7217 47.3265 29.1066 47.1311C28.2231 47.0264 28.1265 46.9985 28.092 46.8659C28.0368 46.6565 28.0437 39.789 28.0989 38.6165L28.1403 37.6464L28.727 36.774C29.0514 36.2925 32.5025 31.2047 36.3953 25.4678C40.2882 19.731 43.5529 14.8874 43.6426 14.706C43.8635 14.2523 43.8566 13.7847 43.6219 13.2892C43.5184 13.0798 43.3389 12.8426 43.2285 12.7588C42.7522 12.4168 42.7108 12.4168 37.4928 12.4168C34.8078 12.4168 32.606 12.3889 32.606 12.361C32.606 12.2284 32.889 11.4816 33.0616 11.1676C33.1582 10.9791 33.3514 10.7139 33.4964 10.5813C33.6344 10.4487 34.5386 9.86944 35.5049 9.30413C39.2873 7.09174 45.2025 3.51144 45.4855 3.26019C45.9549 2.84145 46.1343 2.06676 45.8927 1.47353C45.6098 0.803537 44.8436 0.37781 44.1672 0.531351ZM27.9125 15.718C27.9125 15.7947 27.0014 18.2933 26.7046 19.033C26.6356 19.1936 26.5252 19.3611 26.4492 19.4029C26.3664 19.4518 24.9653 19.4937 22.5564 19.5146C20.4926 19.5425 18.8016 19.5774 18.8016 19.6053C18.8016 19.6751 22.446 25.07 26.4561 30.9395C27.6157 32.6354 27.6364 32.7122 27.312 33.1937C27.2016 33.3403 26.8289 33.8986 26.47 34.422C26.111 34.9455 25.8073 35.3642 25.8004 35.3573C25.7935 35.3503 22.9222 31.1209 19.4228 25.9564C15.9234 20.7918 12.99 16.4717 12.9071 16.36C12.8243 16.2414 12.6863 16.032 12.5965 15.8855L12.4378 15.6272H20.1751C26.3664 15.6272 27.9125 15.6482 27.9125 15.718ZM39.1631 15.6691C39.1631 15.711 37.8655 17.6512 37.1131 18.7329C36.8716 19.0749 36.6369 19.382 36.5886 19.4099C36.5403 19.4309 35.0356 19.4797 33.241 19.5076C30.5353 19.5495 29.9832 19.5425 29.9832 19.4658C29.9832 19.3541 31.0599 16.388 31.1911 16.1158C31.3015 15.8994 31.4948 15.7249 31.6742 15.6761C31.8744 15.6272 39.1631 15.6202 39.1631 15.6691Z" fill="black"/>
<path d="M8.65536 4.04758C6.17747 4.35466 4.28627 5.28986 2.67115 6.99277C1.34593 8.40256 0.469349 10.1473 0.12424 12.0666C-0.0414132 12.9599 -0.0414132 14.5372 0.12424 15.3817C0.414132 16.9171 1.07674 18.4874 1.91881 19.6111C2.74707 20.7207 4.03779 21.8025 5.29399 22.4446C5.99801 22.8005 7.28182 23.2123 8.10318 23.3449C8.85552 23.4635 10.5328 23.4566 10.8434 23.3309C10.9883 23.2681 10.9538 23.2053 10.0979 21.9421C9.60786 21.2093 9.104 20.5183 8.97976 20.4067C8.80721 20.2392 8.60704 20.1554 8.10318 20.0298C6.15676 19.5552 4.59686 18.2641 3.7548 16.4425C3.34066 15.5562 3.18191 14.7955 3.18882 13.7416C3.18882 12.618 3.38898 11.7874 3.92045 10.7057C4.81773 8.87714 6.30861 7.76746 8.4828 7.31381C9.03498 7.19517 10.4499 7.19517 10.9676 7.31381C12.1617 7.57902 13.2729 8.23506 14.2806 9.27495C14.6258 9.62391 14.9847 9.95891 15.0882 10.0147C15.2332 10.0915 15.6197 10.1124 16.869 10.1124C17.7386 10.1124 18.4565 10.0915 18.4565 10.0706C18.4565 10.0427 18.3184 9.73558 18.1528 9.37964C17.1105 7.14632 15.033 5.30382 12.6586 4.50122C11.4093 4.07549 9.82183 3.90102 8.65536 4.04758Z" fill="black"/>
</svg>
