<svg width="50" height="50" viewBox="0 0 50 50" fill="none" xmlns="http://www.w3.org/2000/svg">
<path d="M14.1036 1.8475V3.195H16.9743C18.7314 3.195 19.5 3.44 19.746 3.44C19.6965 3.5625 16.1081 10.1285 11.7526 17.993C4.6253 30.9045 3.78388 32.3255 3.31368 32.203C2.84348 32.0805 2.59601 32.3745 1.50712 34.3835C0.418227 36.368 0.244995 36.8825 0.244995 38.034C0.244995 39.1365 0.368733 39.553 0.987419 40.386C2.57126 42.5665 5.5657 43.13 7.66924 41.66C8.0157 41.415 8.90661 40.141 9.62429 38.818C10.8617 36.6375 10.9359 36.417 10.5399 36.123C10.144 35.8535 10.2182 35.6575 11.2576 33.722C11.9011 32.5705 12.4455 31.615 12.495 31.615C12.6682 31.615 13.6334 33.8935 14.4995 36.368C15.5389 39.3325 16.0091 41.9785 16.2319 46.266L16.3803 49.5H24.7202H33.0601L33.3571 45.286C33.5303 42.591 33.8273 40.288 34.1738 38.9895C34.6935 37.005 36.4753 32.203 36.8713 31.7865C36.9702 31.664 37.5889 32.546 38.2076 33.6975C39.2718 35.6575 39.346 35.8535 38.95 36.123C38.5541 36.417 38.6283 36.6375 39.8657 38.8425C41.499 41.7825 42.3652 42.4685 44.3945 42.444C46.1021 42.444 47.5374 41.709 48.5026 40.386C49.1213 39.553 49.245 39.1365 49.245 38.034C49.245 36.8825 49.0718 36.368 47.9829 34.3835C46.894 32.3745 46.6465 32.0805 46.1763 32.203C45.7061 32.3255 44.8647 30.9045 37.6632 17.895C33.2829 9.957 29.6945 3.391 29.6945 3.3175C30 3.3175 30.9814 3.195 32.5404 3.195H35.3864V1.8475V0.5H24.745H14.1036V1.8475ZM26.1778 3.195C26.6233 3.734 36.6238 21.7905 36.6238 22.06C36.6238 22.1825 36.3516 22.305 36.0051 22.305C34.6687 22.305 33.3076 23.4565 31.5011 26.0535C30.5112 27.4745 29.249 28.3075 27.3435 28.7975C25.4874 29.263 24.0026 29.263 22.1465 28.7975C20.241 28.3075 18.9788 27.4745 17.9889 26.0535C16.1824 23.4565 14.8213 22.305 13.4849 22.305C13.1384 22.305 12.8662 22.1825 12.8662 22.0355C12.8662 21.8885 15.1677 17.601 18.0137 12.4805L23.1364 3.195H24.646C25.5617 3.195 26 3.195 26.1778 3.195ZM5.6152 36.564C6.30813 36.9315 6.95156 37.348 7.0258 37.4705C7.10005 37.5685 6.82782 38.132 6.43186 38.6955C5.83792 39.4795 5.54095 39.7 4.92227 39.7C4.1056 39.7 2.96722 38.769 2.96722 38.1075C2.96722 37.593 3.93237 35.731 4.1551 35.829C4.25409 35.878 4.89752 36.1965 5.6152 36.564ZM46.0278 36.76C46.6713 38.0095 46.6465 38.377 45.9041 39.0875C44.9389 40.0675 43.949 39.9205 43.0581 38.671C42.5632 37.985 42.3899 37.5685 42.5632 37.397C42.8354 37.1275 45.0627 35.8535 45.3349 35.8045C45.4339 35.78 45.7556 36.221 46.0278 36.76Z" fill="black"/>
<ellipse cx="24.49" cy="21.855" rx="5.39" ry="5.355" fill="black"/>
</svg>
