<svg width="56" height="56" viewBox="0 0 56 56" fill="none" xmlns="http://www.w3.org/2000/svg">
<path d="M28 0.5C20.4089 0.5 13.9277 3.18555 8.55664 8.55664C3.18555 13.9277 0.5 20.4089 0.5 28C0.5 35.5911 3.18555 42.0723 8.55664 47.4434C13.9277 52.8145 20.4089 55.5 28 55.5C35.5911 55.5 42.0723 52.8145 47.4434 47.4434C52.8145 42.0723 55.5 35.5911 55.5 28C55.5 20.4089 52.8145 13.9277 47.4434 8.55664C42.0723 3.18555 35.5911 0.5 28 0.5ZM48.625 30.2559H50.666C50.0931 35.6986 47.8909 40.3535 44.0596 44.2207C40.2282 48.0879 35.627 50.2363 30.2559 50.666V48.625C30.2559 47.1211 29.5039 46.3691 28 46.3691C26.4961 46.3691 25.7441 47.1211 25.7441 48.625V50.666C20.3014 50.0931 15.6465 47.8909 11.7793 44.0596C7.91211 40.2282 5.76367 35.627 5.33398 30.2559H7.375C8.87891 30.2559 9.63086 29.5039 9.63086 28C9.63086 26.4961 8.87891 25.7441 7.375 25.7441H5.33398C5.76367 20.3014 7.91211 15.6465 11.7793 11.7793C15.6465 7.91211 20.3014 5.76367 25.7441 5.33398V7.375C25.7441 8.87891 26.4961 9.63086 28 9.63086C29.5039 9.63086 30.2559 8.87891 30.2559 7.375V5.33398C35.6986 5.9069 40.3535 8.10905 44.2207 11.9404C48.0879 15.7718 50.2363 20.373 50.666 25.7441H48.625C47.1211 25.7441 46.3691 26.4961 46.3691 28C46.3691 29.5039 47.1211 30.2559 48.625 30.2559ZM30.4707 27.7852L34.6602 17.4727C34.875 16.8281 34.8571 16.2194 34.6064 15.6465C34.3558 15.0736 33.9082 14.6797 33.2637 14.4648C31.8314 13.9635 30.8288 14.429 30.2559 15.8613L25.207 28.4297L35.0898 43.1465C35.4479 43.7194 36.0566 44.0059 36.916 44.0059C37.2741 44.0059 37.7396 43.8626 38.3125 43.5762C39.6732 42.86 39.888 41.7858 38.957 40.3535L30.4707 27.7852Z" fill="black"/>
</svg>
