<svg width="37" height="24" viewBox="0 0 37 24" fill="none" xmlns="http://www.w3.org/2000/svg">
<path d="M35.2509 3.7656C35.0471 3.0389 34.65 2.38098 34.1019 1.86178C33.5384 1.32662 32.8476 0.943806 32.0949 0.749473C29.2779 0.00743355 17.9919 0.00743372 17.9919 0.00743372C13.2869 -0.0460641 8.58307 0.189233 3.90693 0.711996C3.15421 0.920686 2.46477 1.31205 1.89993 1.85129C1.34493 2.38496 0.942926 3.04305 0.732926 3.7641C0.228465 6.48003 -0.0166362 9.23772 0.000925775 12C-0.0170742 14.7598 0.227426 17.5166 0.732926 20.2359C0.938426 20.9539 1.33893 21.609 1.89543 22.1382C2.45193 22.6674 3.14493 23.0496 3.90693 23.252C6.76143 23.9925 17.9919 23.9925 17.9919 23.9925C22.7029 24.0461 27.4128 23.8108 32.0949 23.288C32.8476 23.0937 33.5384 22.7108 34.1019 22.1757C34.6498 21.6566 35.0464 20.9986 35.2494 20.2719C35.7671 17.557 36.0188 14.7981 36.0009 12.0345C36.0399 9.2591 35.7885 6.48726 35.2509 3.7641V3.7656ZM14.4039 17.1328V6.86868L23.7939 12.0015L14.4039 17.1328Z" fill="#FFE95D"/>
</svg>
