<svg width="36" height="25" viewBox="0 0 36 25" fill="none" xmlns="http://www.w3.org/2000/svg">
<path d="M35.25 4.75779C35.0462 4.03109 34.6491 3.37317 34.101 2.85397C33.5374 2.31881 32.8467 1.93599 32.094 1.74166C29.277 0.999621 17.991 0.999621 17.991 0.999621C13.286 0.946123 8.58216 1.18142 3.90601 1.70418C3.1533 1.91287 2.46386 2.30424 1.89901 2.84348C1.34401 3.37715 0.94201 4.03524 0.73201 4.75629C0.22755 7.47222 -0.0175517 10.2299 1.02476e-05 12.9922C-0.0179898 15.752 0.22651 18.5088 0.73201 21.2281C0.93751 21.9461 1.33801 22.6012 1.89451 23.1304C2.45101 23.6596 3.14401 24.0418 3.90601 24.2442C6.76051 24.9847 17.991 24.9847 17.991 24.9847C22.702 25.0383 27.4119 24.803 32.094 24.2802C32.8467 24.0858 33.5374 23.703 34.101 23.1679C34.6489 22.6488 35.0455 21.9908 35.2485 21.264C35.7661 18.5492 36.0178 15.7903 36 13.0267C36.0389 10.2513 35.7876 7.47945 35.25 4.75629V4.75779ZM14.403 18.125V7.86086L23.793 12.9937L14.403 18.125Z" fill="#F8D600"/>
</svg>
