<svg width="56" height="48" viewBox="0 0 56 48" fill="none" xmlns="http://www.w3.org/2000/svg">
<path d="M49.8721 17.9071L40.7732 3.85379L45.1059 0.574219L54.2021 14.6275L49.8721 17.9071ZM44.8918 25.1696L40.345 18.1387L18.6897 34.5394L23.2365 41.5646L18.9065 44.847L6.77824 26.1074L11.1082 22.8278L15.655 29.8559L37.3103 13.4552L32.7635 6.42713L37.0935 3.14755L49.2218 21.8843L44.8918 25.1667V25.1696ZM51.17 9.94116L55.5 6.66158L52.4679 1.97812L48.1379 5.25769L51.17 9.94116ZM15.2268 44.1465L6.12794 30.0932L1.79794 33.3728L10.8941 47.4261L15.2268 44.1465V44.1465ZM7.86206 42.7426L3.53206 46.0222L0.5 41.3387L4.83 38.0591L7.86206 42.7426Z" fill="black"/>
</svg>
