<svg width="31" height="16" viewBox="0 0 31 16" fill="none" xmlns="http://www.w3.org/2000/svg">
<path d="M9.04119 5.5C9.08168 5.05469 8.97372 4.70608 8.71733 4.45419C8.46094 4.1978 8.02912 4.0696 7.42188 4.0696C7.03504 4.0696 6.71117 4.11458 6.45028 4.20455C6.19389 4.29451 5.99373 4.41821 5.84979 4.57564C5.71035 4.73307 5.62263 4.91525 5.58665 5.12216C5.54616 5.28409 5.54841 5.43253 5.5934 5.56747C5.64287 5.69792 5.73509 5.81712 5.87003 5.92507C6.00947 6.03303 6.19164 6.12973 6.41655 6.2152C6.64595 6.30066 6.91809 6.37713 7.23296 6.4446L8.3125 6.6875C9.05019 6.84943 9.66868 7.06309 10.168 7.32848C10.6718 7.58937 11.0676 7.89974 11.3555 8.25959C11.6433 8.61944 11.8323 9.02202 11.9222 9.46733C12.0167 9.91264 12.0189 10.3984 11.929 10.9247C11.776 11.8333 11.4229 12.6025 10.8697 13.2322C10.3164 13.862 9.59446 14.341 8.70384 14.6694C7.81321 14.9978 6.78314 15.1619 5.61364 15.1619C4.41714 15.1619 3.40057 14.9843 2.56392 14.6289C1.73177 14.2691 1.12902 13.7203 0.755682 12.9826C0.386837 12.2404 0.296875 11.2936 0.485795 10.142H4.0483C3.99432 10.5649 4.0393 10.9202 4.18324 11.2081C4.32718 11.496 4.55883 11.7141 4.8782 11.8626C5.19756 12.011 5.59564 12.0852 6.07244 12.0852C6.47727 12.0852 6.82363 12.0357 7.11151 11.9368C7.39938 11.8378 7.62654 11.7006 7.79297 11.5252C7.9594 11.3498 8.06061 11.1496 8.09659 10.9247C8.13258 10.7178 8.09659 10.5334 7.98864 10.3714C7.88068 10.2095 7.68501 10.0633 7.40163 9.93288C7.11825 9.80244 6.72917 9.68324 6.23438 9.57528L4.91193 9.27841C3.73793 9.00852 2.8518 8.56321 2.25355 7.94247C1.6553 7.32173 1.44389 6.47159 1.61932 5.39205C1.76326 4.51042 2.12536 3.74124 2.70561 3.08452C3.29036 2.42329 4.03255 1.91051 4.93217 1.54616C5.83629 1.17732 6.83712 0.992897 7.93466 0.992897C9.05019 0.992897 9.98355 1.17957 10.7347 1.55291C11.4904 1.92625 12.0324 2.45028 12.3608 3.125C12.6937 3.79972 12.7836 4.59138 12.6307 5.5H9.04119Z" fill="white"/>
<path d="M14.9753 1.18182H19.6444L21.5605 9.00852H21.7225L26.2296 1.18182H30.8986L28.6046 15H24.9341L26.2566 7.01136H26.1486L21.7765 14.892H19.5634L17.8091 6.95739H17.7012L16.3517 15H12.6813L14.9753 1.18182Z" fill="#F8D600"/>
</svg>
