<svg width="210" height="72" viewBox="0 0 210 72" fill="none" xmlns="http://www.w3.org/2000/svg">
<path d="M35.5653 34C35.6037 33.5781 35.5014 33.2479 35.2585 33.0092C35.0156 32.7663 34.6065 32.6449 34.0312 32.6449C33.6648 32.6449 33.358 32.6875 33.1108 32.7727C32.8679 32.858 32.6783 32.9751 32.5419 33.1243C32.4098 33.2734 32.3267 33.446 32.2926 33.642C32.2543 33.7955 32.2564 33.9361 32.299 34.0639C32.3459 34.1875 32.4332 34.3004 32.5611 34.4027C32.6932 34.505 32.8658 34.5966 33.0788 34.6776C33.2962 34.7585 33.554 34.831 33.8523 34.8949L34.875 35.125C35.5739 35.2784 36.1598 35.4808 36.6328 35.7322C37.1101 35.9794 37.4851 36.2734 37.7578 36.6143C38.0305 36.9553 38.2095 37.3366 38.2947 37.7585C38.3842 38.1804 38.3864 38.6406 38.3011 39.1392C38.1563 40 37.8217 40.7287 37.2976 41.3253C36.7734 41.9219 36.0895 42.3757 35.2457 42.6868C34.402 42.9979 33.4261 43.1534 32.3182 43.1534C31.1847 43.1534 30.2216 42.9851 29.429 42.6484C28.6406 42.3075 28.0696 41.7876 27.7159 41.0888C27.3665 40.3857 27.2813 39.4886 27.4602 38.3977H30.8352C30.7841 38.7983 30.8267 39.1349 30.9631 39.4077C31.0994 39.6804 31.3189 39.8871 31.6214 40.0277C31.924 40.1683 32.3011 40.2386 32.7528 40.2386C33.1364 40.2386 33.4645 40.1918 33.7372 40.098C34.0099 40.0043 34.2251 39.8743 34.3828 39.7081C34.5405 39.5419 34.6364 39.3523 34.6705 39.1392C34.7045 38.9432 34.6705 38.7685 34.5682 38.6151C34.4659 38.4616 34.2805 38.3232 34.0121 38.1996C33.7436 38.076 33.375 37.9631 32.9062 37.8608L31.6534 37.5795C30.5412 37.3239 29.7017 36.902 29.1349 36.3139C28.5682 35.7259 28.3679 34.9205 28.5341 33.8977C28.6705 33.0625 29.0135 32.3338 29.5632 31.7116C30.1172 31.0852 30.8203 30.5994 31.6726 30.2543C32.5291 29.9048 33.4773 29.7301 34.517 29.7301C35.5739 29.7301 36.4581 29.907 37.1697 30.2607C37.8857 30.6143 38.3991 31.1108 38.7102 31.75C39.0256 32.3892 39.1108 33.1392 38.9659 34H35.5653ZM39.0138 43L41.1871 29.9091H46.8377C47.8093 29.9091 48.6275 30.1009 49.2923 30.4844C49.957 30.8679 50.4343 31.407 50.7241 32.1016C51.0138 32.7962 51.082 33.608 50.9286 34.5369C50.7752 35.483 50.4343 36.299 49.9059 36.9851C49.3817 37.6669 48.7127 38.1932 47.8988 38.5639C47.0891 38.9304 46.1815 39.1136 45.1758 39.1136H41.8008L42.261 36.3523H44.9201C45.3462 36.3523 45.7212 36.2798 46.0451 36.1349C46.369 35.9858 46.631 35.777 46.8313 35.5085C47.0316 35.2358 47.1616 34.9119 47.2212 34.5369C47.2809 34.1619 47.2532 33.8423 47.1381 33.5781C47.0273 33.3097 46.8356 33.1051 46.5629 32.9645C46.2944 32.8196 45.9513 32.7472 45.5337 32.7472H44.2809L42.5678 43H39.0138ZM64.5565 36.6847C64.3178 38.108 63.8448 39.3011 63.1374 40.2642C62.43 41.2273 61.5714 41.9538 60.5614 42.4439C59.5515 42.9339 58.4712 43.179 57.3207 43.179C56.0934 43.179 55.0281 42.9126 54.1246 42.38C53.2212 41.8473 52.5629 41.0675 52.1495 40.0405C51.7362 39.0135 51.6531 37.7585 51.9002 36.2756C52.1303 34.8523 52.5991 33.6548 53.3065 32.6832C54.0138 31.7116 54.8768 30.9766 55.8952 30.478C56.9137 29.9794 58.0025 29.7301 59.1616 29.7301C60.3803 29.7301 61.4393 29.9986 62.3384 30.5355C63.2418 31.0724 63.8981 31.8587 64.3072 32.8942C64.7205 33.9297 64.8036 35.1932 64.5565 36.6847ZM60.9769 36.2756C61.0962 35.5256 61.1048 34.8949 61.0025 34.3835C60.9002 33.8679 60.685 33.4801 60.3569 33.2202C60.0288 32.956 59.5877 32.8239 59.0337 32.8239C58.4031 32.8239 57.8448 32.9773 57.359 33.2841C56.8732 33.5909 56.4705 34.032 56.1509 34.6072C55.8313 35.1825 55.6076 35.875 55.4798 36.6847C55.3434 37.4432 55.3306 38.0739 55.4414 38.5767C55.5565 39.0795 55.7823 39.4567 56.119 39.7081C56.4599 39.9595 56.9031 40.0852 57.4485 40.0852C58.0707 40.0852 58.6204 39.9361 59.0977 39.6378C59.5792 39.3395 59.9776 38.907 60.293 38.3402C60.6126 37.7734 60.8406 37.0852 60.9769 36.2756ZM65.1525 43L67.3258 29.9091H72.9764C73.948 29.9091 74.7683 30.0859 75.4373 30.4396C76.1064 30.7933 76.5879 31.3026 76.8819 31.9673C77.176 32.6321 77.2463 33.429 77.0929 34.358C76.9395 35.2955 76.6007 36.0859 76.0765 36.7294C75.5566 37.3686 74.894 37.8544 74.0886 38.1868C73.2875 38.5149 72.3883 38.679 71.3912 38.679H68.0162L68.4764 35.9176H71.1355C71.5531 35.9176 71.9196 35.8665 72.2349 35.7642C72.5502 35.6577 72.8059 35.4915 73.002 35.2656C73.198 35.0355 73.3258 34.733 73.3855 34.358C73.4451 33.983 73.4153 33.6783 73.296 33.4439C73.1767 33.2053 72.9785 33.0305 72.7015 32.9197C72.4245 32.8047 72.0815 32.7472 71.6724 32.7472H70.4196L68.7065 43H65.1525ZM73.8201 36.9915L76.0957 43H72.2349L70.036 36.9915H73.8201ZM78.6813 32.7727L79.1671 29.9091H90.5449L90.0591 32.7727H86.1216L84.4341 43H80.9313L82.6188 32.7727H78.6813ZM91.8825 29.9091H96.3058L98.1211 37.3239H98.2745L102.544 29.9091H106.968L104.794 43H101.317L102.57 35.4318H102.468L98.3256 42.8977H96.229L94.5671 35.3807H94.4648L93.1864 43H89.7092L91.8825 29.9091ZM120.209 36.6847C119.97 38.108 119.497 39.3011 118.79 40.2642C118.082 41.2273 117.224 41.9538 116.214 42.4439C115.204 42.9339 114.124 43.179 112.973 43.179C111.746 43.179 110.68 42.9126 109.777 42.38C108.874 41.8473 108.215 41.0675 107.802 40.0405C107.388 39.0135 107.305 37.7585 107.553 36.2756C107.783 34.8523 108.251 33.6548 108.959 32.6832C109.666 31.7116 110.529 30.9766 111.548 30.478C112.566 29.9794 113.655 29.7301 114.814 29.7301C116.033 29.7301 117.092 29.9986 117.991 30.5355C118.894 31.0724 119.55 31.8587 119.96 32.8942C120.373 33.9297 120.456 35.1932 120.209 36.6847ZM116.629 36.2756C116.749 35.5256 116.757 34.8949 116.655 34.3835C116.553 33.8679 116.337 33.4801 116.009 33.2202C115.681 32.956 115.24 32.8239 114.686 32.8239C114.055 32.8239 113.497 32.9773 113.011 33.2841C112.526 33.5909 112.123 34.032 111.803 34.6072C111.484 35.1825 111.26 35.875 111.132 36.6847C110.996 37.4432 110.983 38.0739 111.094 38.5767C111.209 39.0795 111.435 39.4567 111.771 39.7081C112.112 39.9595 112.555 40.0852 113.101 40.0852C113.723 40.0852 114.273 39.9361 114.75 39.6378C115.232 39.3395 115.63 38.907 115.945 38.3402C116.265 37.7734 116.493 37.0852 116.629 36.2756ZM134.305 29.9091L132.132 43H129.166L125.586 36.1222H125.509L124.359 43H120.805L122.978 29.9091H125.995L129.524 36.7614H129.626L130.751 29.9091H134.305ZM142.352 34C142.391 33.5781 142.289 33.2479 142.046 33.0092C141.803 32.7663 141.394 32.6449 140.818 32.6449C140.452 32.6449 140.145 32.6875 139.898 32.7727C139.655 32.858 139.465 32.9751 139.329 33.1243C139.197 33.2734 139.114 33.446 139.08 33.642C139.041 33.7955 139.044 33.9361 139.086 34.0639C139.133 34.1875 139.22 34.3004 139.348 34.4027C139.48 34.505 139.653 34.5966 139.866 34.6776C140.083 34.7585 140.341 34.831 140.639 34.8949L141.662 35.125C142.361 35.2784 142.947 35.4808 143.42 35.7322C143.897 35.9794 144.272 36.2734 144.545 36.6143C144.818 36.9553 144.997 37.3366 145.082 37.7585C145.171 38.1804 145.173 38.6406 145.088 39.1392C144.943 40 144.609 40.7287 144.085 41.3253C143.561 41.9219 142.877 42.3757 142.033 42.6868C141.189 42.9979 140.213 43.1534 139.105 43.1534C137.972 43.1534 137.009 42.9851 136.216 42.6484C135.428 42.3075 134.857 41.7876 134.503 41.0888C134.154 40.3857 134.068 39.4886 134.247 38.3977H137.622C137.571 38.7983 137.614 39.1349 137.75 39.4077C137.887 39.6804 138.106 39.8871 138.409 40.0277C138.711 40.1683 139.088 40.2386 139.54 40.2386C139.923 40.2386 140.252 40.1918 140.524 40.098C140.797 40.0043 141.012 39.8743 141.17 39.7081C141.328 39.5419 141.423 39.3523 141.458 39.1392C141.492 38.9432 141.458 38.7685 141.355 38.6151C141.253 38.4616 141.068 38.3232 140.799 38.1996C140.531 38.076 140.162 37.9631 139.693 37.8608L138.441 37.5795C137.328 37.3239 136.489 36.902 135.922 36.3139C135.355 35.7259 135.155 34.9205 135.321 33.8977C135.458 33.0625 135.801 32.3338 136.35 31.7116C136.904 31.0852 137.607 30.5994 138.46 30.2543C139.316 29.9048 140.264 29.7301 141.304 29.7301C142.361 29.7301 143.245 29.907 143.957 30.2607C144.673 30.6143 145.186 31.1108 145.497 31.75C145.813 32.3892 145.898 33.1392 145.753 34H142.352ZM147.131 32.7727L147.616 29.9091H158.994L158.508 32.7727H154.571L152.883 43H149.381L151.068 32.7727H147.131ZM158.158 43L160.332 29.9091H169.766L169.281 32.7727H163.4L163.042 35.0227H168.437L167.951 37.8864H162.556L162.198 40.1364H168.053L167.567 43H158.158ZM169.356 43L171.529 29.9091H177.18C178.151 29.9091 178.971 30.0859 179.64 30.4396C180.309 30.7933 180.791 31.3026 181.085 31.9673C181.379 32.6321 181.449 33.429 181.296 34.358C181.143 35.2955 180.804 36.0859 180.28 36.7294C179.76 37.3686 179.097 37.8544 178.292 38.1868C177.491 38.5149 176.591 38.679 175.594 38.679H172.219L172.68 35.9176H175.339C175.756 35.9176 176.123 35.8665 176.438 35.7642C176.753 35.6577 177.009 35.4915 177.205 35.2656C177.401 35.0355 177.529 34.733 177.589 34.358C177.648 33.983 177.618 33.6783 177.499 33.4439C177.38 33.2053 177.182 33.0305 176.905 32.9197C176.628 32.8047 176.285 32.7472 175.876 32.7472H174.623L172.91 43H169.356ZM178.023 36.9915L180.299 43H176.438L174.239 36.9915H178.023Z" fill="white"/>
<path d="M210 36C210 55.8823 162.99 72 105 72C47.0101 72 0 55.8823 0 36C0 16.1177 47.0101 0 105 0C162.99 0 210 16.1177 210 36ZM15.8348 36C15.8348 52.8839 55.7554 66.5709 105 66.5709C154.245 66.5709 194.165 52.8839 194.165 36C194.165 19.1161 154.245 5.42906 105 5.42906C55.7554 5.42906 15.8348 19.1161 15.8348 36Z" fill="#F8D600"/>
</svg>
