<svg width="52" height="52" viewBox="0 0 52 52" fill="none" xmlns="http://www.w3.org/2000/svg">
<path d="M24.5172 7.2834C23.6031 7.5623 22.9734 7.94082 22.3234 8.58828C21.2977 9.6043 20.7492 11.0486 20.8609 12.4033C20.9625 13.6883 21.4297 14.6545 22.3945 15.6008C23.3797 16.577 24.5172 17.0352 25.9594 17.0352C29.9203 17.0352 32.3781 12.6922 30.2555 9.41504C29.057 7.55234 26.5891 6.63594 24.5172 7.2834Z" fill="black"/>
<path d="M1.48281 16.1885C1.07656 16.557 1.11719 17.0551 1.625 17.7225C1.84844 18.0113 2.06172 18.36 2.09219 18.4994C2.22422 18.9875 2.07187 19.7146 1.72656 20.2525C0.538281 22.0854 0.40625 22.424 0.40625 23.6393C0.40625 24.9143 0.89375 26.3287 1.77734 27.6436C2.36641 28.5002 2.70156 28.7891 3.10781 28.7891C3.575 28.7891 3.81875 28.6496 4.01172 28.291C4.24531 27.8527 4.20469 27.6834 3.66641 26.8865C2.75234 25.5219 2.41719 24.6354 2.41719 23.6691C2.42734 22.932 2.55937 22.5834 3.17891 21.6969C3.87969 20.6809 4.10312 20.0434 4.11328 18.9775C4.11328 18.1607 4.08281 18.0213 3.78828 17.4236C3.34141 16.5371 2.68125 15.9395 2.15312 15.9395C1.86875 15.9395 1.67578 16.0092 1.48281 16.1885Z" fill="black"/>
<path d="M10.2273 16.2184C9.82109 16.6367 9.86172 17.065 10.3594 17.7225C10.5828 18.0113 10.7961 18.36 10.8266 18.4994C10.9586 18.9875 10.8063 19.7146 10.4609 20.2525C9.29297 22.0555 9.14062 22.4539 9.14062 23.6592C9.14062 24.9441 9.63828 26.3586 10.5523 27.6834C11.1313 28.5201 11.4563 28.7891 11.8625 28.7891C12.3094 28.7891 12.5531 28.6496 12.7461 28.291C12.9797 27.8428 12.9391 27.6834 12.3906 26.8566C11.4766 25.482 11.1516 24.6354 11.1516 23.6691C11.1617 22.932 11.3039 22.5635 11.9234 21.677C12.6242 20.6609 12.8375 20.0434 12.8477 18.9775C12.8477 18.1607 12.8172 18.0213 12.5227 17.4236C11.8523 16.0889 10.857 15.5709 10.2273 16.2184Z" fill="black"/>
<path d="M39.3453 16.4657C38.6344 17.1928 38.3602 17.9001 38.3602 19.0257C38.3602 20.0317 38.5633 20.6095 39.3047 21.6852C39.843 22.4622 40.1172 23.1296 40.1172 23.6376C40.1172 24.4444 39.5789 25.7792 38.7969 26.8948C38.3297 27.5522 38.2484 27.7813 38.3805 28.12C38.6242 28.7376 39.325 28.9766 39.8734 28.628C40.2086 28.4089 41.1227 27.0243 41.5086 26.1477C42.3922 24.1356 42.2703 22.4721 41.1125 20.8186C40.1273 19.4241 40.0766 18.6571 40.8688 17.7009C41.3156 17.153 41.3766 16.9239 41.1938 16.5055C41.0211 16.0872 40.7672 15.9378 40.2594 15.9378C39.9242 15.9378 39.8023 16.0175 39.3453 16.4657Z" fill="black"/>
<path d="M48.1406 16.4166C47.582 16.9843 47.2672 17.592 47.1148 18.3689C46.9117 19.4746 47.1859 20.4507 48.0898 21.7656C48.7703 22.7617 48.9328 23.3494 48.7703 24.2259C48.6383 24.9332 48.1101 26.0687 47.5414 26.8756C47.064 27.5529 46.9828 27.782 47.1148 28.1207C47.3586 28.7283 48.0594 28.9773 48.5875 28.6386C48.9226 28.4195 49.5929 27.4533 50.0703 26.517C51.1469 24.3754 51.0758 22.5226 49.857 20.8193C48.882 19.4646 48.8008 18.6179 49.5726 17.7513C49.9992 17.2732 50.1008 16.9744 49.9687 16.5759C49.8164 16.1377 49.5117 15.9384 49.014 15.9384C48.6687 15.9384 48.5469 16.0082 48.1406 16.4166Z" fill="black"/>
<path d="M23.7148 17.9409C21.907 18.1202 20.607 18.8772 19.957 20.1224C19.8555 20.3116 19.6828 20.5905 19.5609 20.73C19.1852 21.1683 13.7922 32.7329 13.7414 33.211C13.7008 33.5099 13.7516 33.7788 13.8937 34.1075L14.107 34.5657H8.53125C2.94531 34.5657 2.25468 34.6056 1.60468 34.9243C0.77187 35.3427 0.132026 36.279 0.0304638 37.2054C-0.0914112 38.3608 0.629683 39.5561 1.74687 40.0542L2.28515 40.2933L10.3086 40.3231C19.1039 40.353 18.8398 40.363 19.4492 39.7653C20.0281 39.1975 20.0484 39.1079 20.1094 36.3089C20.1602 33.8784 20.1805 33.6891 20.3937 33.3007C21.5312 31.1989 24.5477 31.1391 25.6547 33.211L25.9391 33.7489L26.1117 33.3804C26.7109 32.0655 28.3461 31.3683 29.768 31.8265C30.1641 31.9559 30.4687 32.1651 30.8852 32.5636C31.7383 33.4003 31.7891 33.6294 31.7891 36.3985C31.7891 38.6198 31.7992 38.7194 32.0328 39.2175C32.2055 39.5761 32.4187 39.8151 32.7133 40.0143L33.15 40.2933H41.4273H49.7148L50.2531 40.0542C50.5781 39.9147 50.9641 39.6159 51.2383 39.327C52.5687 37.8727 52.0508 35.6714 50.182 34.8247C49.725 34.6255 49.5727 34.6155 43.7023 34.5856C40.3914 34.5657 37.6797 34.5259 37.6797 34.486C37.6898 34.4462 37.7508 34.3067 37.832 34.1673C37.9133 34.0278 37.9742 33.6692 37.9844 33.3704C37.9844 32.8724 37.8016 32.4241 35.4352 27.3938C34.0336 24.4056 32.6117 21.4472 32.2766 20.8196C31.2305 18.8274 30.2453 18.1501 28.0312 17.9309C26.9141 17.8214 24.893 17.8214 23.7148 17.9409ZM19.6016 32.2747V34.5657H18.4234C17.4789 34.5657 17.2656 34.5358 17.3469 34.4362C17.4383 34.3266 18.6164 31.8962 19.2461 30.5016C19.3781 30.2227 19.5102 29.9837 19.5406 29.9837C19.5812 29.9837 19.6016 31.0097 19.6016 32.2747ZM33.3125 32.2249C33.8203 33.3206 34.2875 34.2569 34.3383 34.3067C34.5414 34.5259 34.3789 34.5657 33.3633 34.5657H32.2969V32.3544C32.2969 31.1391 32.3172 30.1729 32.3375 30.1929C32.3578 30.2128 32.7945 31.1292 33.3125 32.2249Z" fill="black"/>
<path d="M22.1305 32.902C21.8359 33.0613 21.582 33.3004 21.3789 33.6192L21.0742 34.0973V38.7391C21.0742 43.3709 21.0742 43.3809 21.3078 43.8391C22.0898 45.4129 24.3953 45.2237 24.9742 43.5403C25.1367 43.0721 25.1367 34.5256 24.9742 34.0574C24.568 32.8721 23.2375 32.3342 22.1305 32.902Z" fill="black"/>
<path d="M27.9805 32.832C27.5031 33.0909 27.2086 33.3898 27.0055 33.8181C26.8328 34.1866 26.8125 34.5552 26.8125 38.7986C26.8125 43.032 26.8328 43.4105 27.0055 43.779C27.3609 44.556 28.1531 44.9843 29.0672 44.9046C29.5953 44.8548 30.1031 44.5261 30.5094 43.9882C30.7227 43.7193 30.7227 43.6097 30.7227 38.8085V33.9077L30.4789 33.5491C30.0828 32.9814 29.6258 32.7323 28.9047 32.7025C28.4781 32.6825 28.1937 32.7224 27.9805 32.832Z" fill="black"/>
</svg>
