<svg width="50" height="44" viewBox="0 0 50 44" fill="none" xmlns="http://www.w3.org/2000/svg">
<path d="M29.5938 28.1251C29.2909 28.1251 28.9948 28.2149 28.743 28.3832C28.4912 28.5514 28.295 28.7906 28.1791 29.0704C28.0632 29.3502 28.0328 29.658 28.0919 29.9551C28.151 30.2521 28.2968 30.5249 28.511 30.7391C28.7251 30.9532 28.998 31.0991 29.295 31.1582C29.592 31.2172 29.8999 31.1869 30.1797 31.071C30.4595 30.9551 30.6987 30.7589 30.8669 30.5071C31.0352 30.2552 31.125 29.9592 31.125 29.6563C31.125 29.2502 30.9637 28.8608 30.6765 28.5736C30.3893 28.2864 29.9999 28.1251 29.5938 28.1251ZM32.6562 18.9377C32.3534 18.9377 32.0573 19.0275 31.8055 19.1957C31.5537 19.364 31.3575 19.6031 31.2416 19.8829C31.1257 20.1627 31.0953 20.4706 31.1544 20.7676C31.2135 21.0647 31.3593 21.3375 31.5735 21.5517C31.7876 21.7658 32.0605 21.9116 32.3575 21.9707C32.6545 22.0298 32.9624 21.9995 33.2422 21.8836C33.522 21.7677 33.7612 21.5714 33.9294 21.3196C34.0977 21.0678 34.1875 20.7718 34.1875 20.4689C34.1875 20.0628 34.0262 19.6733 33.739 19.3862C33.4518 19.099 33.0624 18.9377 32.6562 18.9377ZM35.7188 25.0626C36.0216 25.0626 36.3177 24.9728 36.5695 24.8046C36.8213 24.6363 37.0175 24.3972 37.1334 24.1174C37.2493 23.8376 37.2797 23.5297 37.2206 23.2327C37.1615 22.9356 37.0157 22.6628 36.8015 22.4486C36.5874 22.2345 36.3145 22.0887 36.0175 22.0296C35.7205 21.9705 35.4126 22.0008 35.1328 22.1167C34.853 22.2326 34.6138 22.4289 34.4456 22.6807C34.2773 22.9325 34.1875 23.2285 34.1875 23.5314C34.1875 23.9375 34.3488 24.327 34.636 24.6141C34.9232 24.9013 35.3126 25.0626 35.7188 25.0626ZM32.6562 28.1251C32.9591 28.1251 33.2552 28.0353 33.507 27.867C33.7588 27.6988 33.955 27.4596 34.0709 27.1798C34.1868 26.9 34.2172 26.5922 34.1581 26.2951C34.099 25.9981 33.9532 25.7253 33.739 25.5111C33.5249 25.297 33.252 25.1511 32.955 25.092C32.658 25.033 32.3501 25.0633 32.0703 25.1792C31.7905 25.2951 31.5513 25.4913 31.3831 25.7432C31.2148 25.995 31.125 26.291 31.125 26.5939C31.125 27 31.2863 27.3895 31.5735 27.6766C31.8607 27.9638 32.2501 28.1251 32.6562 28.1251ZM29.5938 22.0001C29.2909 22.0001 28.9948 22.0899 28.743 22.2582C28.4912 22.4265 28.295 22.6656 28.1791 22.9454C28.0632 23.2252 28.0328 23.5331 28.0919 23.8301C28.151 24.1271 28.2968 24.4 28.511 24.6141C28.7251 24.8283 28.998 24.9741 29.295 25.0332C29.592 25.0923 29.8999 25.062 30.1797 24.9461C30.4595 24.8302 30.6987 24.6339 30.8669 24.3821C31.0352 24.1303 31.125 23.8342 31.125 23.5314C31.125 23.1253 30.9637 22.7358 30.6765 22.4486C30.3893 22.1615 29.9999 22.0001 29.5938 22.0001ZM41.8438 18.9377C42.1466 18.9377 42.4427 18.8479 42.6945 18.6796C42.9463 18.5114 43.1425 18.2722 43.2584 17.9924C43.3743 17.7126 43.4047 17.4047 43.3456 17.1077C43.2865 16.8107 43.1407 16.5378 42.9265 16.3237C42.7124 16.1095 42.4395 15.9637 42.1425 15.9046C41.8455 15.8455 41.5376 15.8758 41.2578 15.9917C40.978 16.1076 40.7388 16.3039 40.5706 16.5557C40.4023 16.8075 40.3125 17.1036 40.3125 17.4064C40.3125 17.8125 40.4738 18.202 40.761 18.4892C41.0482 18.7763 41.4376 18.9377 41.8438 18.9377ZM37.25 20.4689C37.25 20.7718 37.3398 21.0678 37.5081 21.3196C37.6763 21.5714 37.9155 21.7677 38.1953 21.8836C38.4751 21.9995 38.783 22.0298 39.08 21.9707C39.377 21.9116 39.6499 21.7658 39.864 21.5517C40.0782 21.3375 40.224 21.0647 40.2831 20.7676C40.3422 20.4706 40.3118 20.1627 40.1959 19.8829C40.08 19.6031 39.8838 19.364 39.632 19.1957C39.3802 19.0275 39.0841 18.9377 38.7812 18.9377C38.3751 18.9377 37.9857 19.099 37.6985 19.3862C37.4113 19.6733 37.25 20.0628 37.25 20.4689ZM35.7188 15.8752C35.4159 15.8752 35.1198 15.965 34.868 16.1332C34.6162 16.3015 34.42 16.5406 34.3041 16.8204C34.1882 17.1002 34.1578 17.4081 34.2169 17.7052C34.276 18.0022 34.4218 18.275 34.636 18.4892C34.8501 18.7033 35.123 18.8492 35.42 18.9082C35.717 18.9673 36.0249 18.937 36.3047 18.8211C36.5845 18.7052 36.8237 18.5089 36.9919 18.2571C37.1602 18.0053 37.25 17.7093 37.25 17.4064C37.25 17.0003 37.0887 16.6108 36.8015 16.3237C36.5143 16.0365 36.1249 15.8752 35.7188 15.8752ZM44.9062 18.9377C44.6034 18.9377 44.3073 19.0275 44.0555 19.1957C43.8037 19.364 43.6075 19.6031 43.4916 19.8829C43.3757 20.1627 43.3453 20.4706 43.4044 20.7676C43.4635 21.0647 43.6093 21.3375 43.8235 21.5517C44.0376 21.7658 44.3105 21.9116 44.6075 21.9707C44.9045 22.0298 45.2124 21.9995 45.4922 21.8836C45.772 21.7677 46.0112 21.5714 46.1794 21.3196C46.3477 21.0678 46.4375 20.7718 46.4375 20.4689C46.4375 20.0628 46.2762 19.6733 45.989 19.3862C45.7018 19.099 45.3124 18.9377 44.9062 18.9377ZM47.9688 15.8752C47.6659 15.8752 47.3698 15.965 47.118 16.1332C46.8662 16.3015 46.67 16.5406 46.5541 16.8204C46.4382 17.1002 46.4078 17.4081 46.4669 17.7052C46.526 18.0022 46.6718 18.275 46.886 18.4892C47.1001 18.7033 47.373 18.8492 47.67 18.9082C47.967 18.9673 48.2749 18.937 48.5547 18.8211C48.8345 18.7052 49.0737 18.5089 49.2419 18.2571C49.4102 18.0053 49.5 17.7093 49.5 17.4064C49.5 17.0003 49.3387 16.6108 49.0515 16.3237C48.7643 16.0365 48.3749 15.8752 47.9688 15.8752ZM41.8438 22.0001C41.5409 22.0001 41.2448 22.0899 40.993 22.2582C40.7412 22.4265 40.545 22.6656 40.4291 22.9454C40.3132 23.2252 40.2828 23.5331 40.3419 23.8301C40.401 24.1271 40.5468 24.4 40.761 24.6141C40.9751 24.8283 41.248 24.9741 41.545 25.0332C41.842 25.0923 42.1499 25.062 42.4297 24.9461C42.7095 24.8302 42.9487 24.6339 43.1169 24.3821C43.2852 24.1303 43.375 23.8342 43.375 23.5314C43.375 23.1253 43.2137 22.7358 42.9265 22.4486C42.6393 22.1615 42.2499 22.0001 41.8438 22.0001ZM38.7812 25.0626C38.4784 25.0626 38.1823 25.1524 37.9305 25.3207C37.6787 25.4889 37.4825 25.7281 37.3666 26.0079C37.2507 26.2877 37.2203 26.5956 37.2794 26.8926C37.3385 27.1896 37.4843 27.4625 37.6985 27.6766C37.9126 27.8908 38.1855 28.0366 38.4825 28.0957C38.7795 28.1548 39.0874 28.1244 39.3672 28.0085C39.647 27.8926 39.8862 27.6964 40.0544 27.4446C40.2227 27.1928 40.3125 26.8967 40.3125 26.5939C40.3125 26.1878 40.1512 25.7983 39.864 25.5111C39.5768 25.2239 39.1874 25.0626 38.7812 25.0626ZM32.6562 31.1876C32.3534 31.1876 32.0573 31.2774 31.8055 31.4456C31.5537 31.6139 31.3575 31.853 31.2416 32.1328C31.1257 32.4126 31.0953 32.7205 31.1544 33.0176C31.2135 33.3146 31.3593 33.5874 31.5735 33.8016C31.7876 34.0157 32.0605 34.1616 32.3575 34.2206C32.6545 34.2797 32.9624 34.2494 33.2422 34.1335C33.522 34.0176 33.7612 33.8213 33.9294 33.5695C34.0977 33.3177 34.1875 33.0217 34.1875 32.7188C34.1875 32.3127 34.0262 31.9232 33.739 31.6361C33.4518 31.3489 33.0624 31.1876 32.6562 31.1876ZM29.5938 34.2501C29.2909 34.2501 28.9948 34.3399 28.743 34.5081C28.4912 34.6764 28.295 34.9155 28.1791 35.1953C28.0632 35.4751 28.0328 35.783 28.0919 36.08C28.151 36.3771 28.2968 36.6499 28.511 36.8641C28.7251 37.0782 28.998 37.224 29.295 37.2831C29.592 37.3422 29.8999 37.3119 30.1797 37.196C30.4595 37.0801 30.6987 36.8838 30.8669 36.632C31.0352 36.3802 31.125 36.0842 31.125 35.7813C31.125 35.3752 30.9637 34.9857 30.6765 34.6985C30.3893 34.4114 29.9999 34.2501 29.5938 34.2501ZM35.7188 28.1251C35.4159 28.1251 35.1198 28.2149 34.868 28.3832C34.6162 28.5514 34.42 28.7906 34.3041 29.0704C34.1882 29.3502 34.1578 29.658 34.2169 29.9551C34.276 30.2521 34.4218 30.5249 34.636 30.7391C34.8501 30.9532 35.123 31.0991 35.42 31.1582C35.717 31.2172 36.0249 31.1869 36.3047 31.071C36.5845 30.9551 36.8237 30.7589 36.9919 30.5071C37.1602 30.2552 37.25 29.9592 37.25 29.6563C37.25 29.2502 37.0887 28.8608 36.8015 28.5736C36.5143 28.2864 36.1249 28.1251 35.7188 28.1251ZM37.7907 7.22847L36.7093 6.14607C36.5671 6.00385 36.3983 5.89103 36.2125 5.81405C36.0267 5.73708 35.8275 5.69746 35.6264 5.69746C35.4253 5.69746 35.2261 5.73708 35.0403 5.81405C34.8545 5.89103 34.6857 6.00385 34.5435 6.14607L34.0009 6.68775C32.0099 4.72541 29.3267 3.62533 26.5312 3.62527C24.6899 3.62527 22.9826 4.13249 21.4686 4.95075L20.5115 3.99372C18.3396 1.81171 15.3923 0.578197 12.3136 0.56279C5.81057 0.514939 0.5 6.39203 0.5 12.8941V41.9063C0.5 42.3124 0.661328 42.7018 0.948493 42.989C1.23566 43.2762 1.62514 43.4375 2.03125 43.4375H5.09375C5.49986 43.4375 5.88934 43.2762 6.17651 42.989C6.46367 42.7018 6.625 42.3124 6.625 41.9063V12.6596C6.625 9.77415 8.63477 7.0897 11.5059 6.73273C12.3565 6.62129 13.2214 6.70723 14.0334 6.98389C14.8455 7.26055 15.5829 7.7205 16.1886 8.32809L17.1456 9.28511C16.3197 10.7953 15.8125 12.5026 15.8125 14.3439C15.813 17.1393 16.913 19.8224 18.875 21.8135L18.3333 22.3562C18.0464 22.6433 17.8852 23.0326 17.8852 23.4386C17.8852 23.8445 18.0464 24.2338 18.3333 24.5209L19.4148 25.6033C19.557 25.7456 19.7258 25.8584 19.9116 25.9354C20.0974 26.0123 20.2965 26.052 20.4976 26.052C20.6988 26.052 20.8979 26.0123 21.0837 25.9354C21.2695 25.8584 21.4383 25.7456 21.5805 25.6033L37.7907 9.39421C37.9329 9.25202 38.0458 9.0832 38.1227 8.8974C38.1997 8.7116 38.2393 8.51246 38.2393 8.31134C38.2393 8.11023 38.1997 7.91108 38.1227 7.72528C38.0458 7.53948 37.9329 7.37066 37.7907 7.22847V7.22847Z" fill="black"/>
</svg>
